<svg width="128" height="128" viewBox="0 0 128 128" fill="none" xmlns="http://www.w3.org/2000/svg">
  <!-- Fundo da calculadora -->
  <rect x="16" y="8" width="96" height="112" rx="12" fill="#2D3748"/>
  <rect x="18" y="10" width="92" height="108" rx="10" fill="#1A202C"/>
  
  <!-- Display -->
  <rect x="26" y="18" width="76" height="24" rx="4" fill="#4A5568"/>
  <rect x="28" y="20" width="72" height="20" rx="3" fill="#2D3748"/>
  
  <!-- Linha 1 de bot천es -->
  <rect x="26" y="52" width="16" height="14" rx="3" fill="#4A5568"/>
  <rect x="46" y="52" width="16" height="14" rx="3" fill="#4A5568"/>
  <rect x="66" y="52" width="16" height="14" rx="3" fill="#4A5568"/>
  <rect x="86" y="52" width="16" height="14" rx="3" fill="#9378B8"/>
  
  <!-- Linha 2 de bot천es -->
  <rect x="26" y="70" width="16" height="14" rx="3" fill="#4A5568"/>
  <rect x="46" y="70" width="16" height="14" rx="3" fill="#4A5568"/>
  <rect x="66" y="70" width="16" height="14" rx="3" fill="#4A5568"/>
  <rect x="86" y="70" width="16" height="14" rx="3" fill="#9378B8"/>
  
  <!-- Linha 3 de bot천es -->
  <rect x="26" y="88" width="16" height="14" rx="3" fill="#4A5568"/>
  <rect x="46" y="88" width="16" height="14" rx="3" fill="#4A5568"/>
  <rect x="66" y="88" width="16" height="14" rx="3" fill="#4A5568"/>
  <rect x="86" y="88" width="16" height="14" rx="3" fill="#9378B8"/>
  
  <!-- Linha 4 de bot천es -->
  <rect x="26" y="106" width="16" height="14" rx="3" fill="#4A5568"/>
  <rect x="46" y="106" width="36" height="14" rx="3" fill="#4A5568"/>
  <rect x="86" y="106" width="16" height="14" rx="3" fill="#68D391"/>
</svg>
